<svg xmlns="http://www.w3.org/2000/svg" viewBox="0 0 64 64" width="64" height="64">
  <!-- Two overlapping speech bubbles -->
  <!-- Back bubble -->
  <path d="M18 6 L56 6 Q62 6 62 12 L62 32 Q62 38 56 38 L52 38 L52 48 L42 38 L18 38 Q12 38 12 32 L12 12 Q12 6 18 6 Z" fill="currentColor"/>

  <!-- Front bubble (cutout style) -->
  <path d="M8 20 L40 20 Q46 20 46 26 L46 42 Q46 48 40 48 L18 48 L10 58 L10 48 L8 48 Q2 48 2 42 L2 26 Q2 20 8 20 Z" fill="currentColor" stroke="white" stroke-width="3"/>

  <!-- Tree in front bubble -->
  <rect x="20" y="38" width="4" height="6" fill="white"/>
  <ellipse cx="22" cy="34" rx="7" ry="5" fill="white"/>
  <ellipse cx="22" cy="30" rx="5" ry="4" fill="white"/>
</svg>
