<svg xmlns="http://www.w3.org/2000/svg" viewBox="0 0 64 64" width="64" height="64">
  <defs>
    <linearGradient id="consultGreen" x1="0%" y1="0%" x2="0%" y2="100%">
      <stop offset="0%" style="stop-color:#4a7c23;stop-opacity:1" />
      <stop offset="100%" style="stop-color:#2d5016;stop-opacity:1" />
    </linearGradient>
  </defs>

  <!-- Speech bubble -->
  <path d="M10 12 L54 12 Q58 12 58 16 L58 38 Q58 42 54 42 L22 42 L14 52 L14 42 L10 42 Q6 42 6 38 L6 16 Q6 12 10 12 Z" fill="#f5f4f0" stroke="url(#consultGreen)" stroke-width="2"/>

  <!-- Tree icon inside bubble -->
  <rect x="29" y="28" width="6" height="10" fill="#8b7355"/>
  <ellipse cx="32" cy="24" rx="10" ry="8" fill="url(#consultGreen)"/>
  <ellipse cx="32" cy="18" rx="7" ry="6" fill="#4a7c23"/>

  <!-- Question/help marks representing consultation -->
  <circle cx="18" cy="27" r="6" fill="url(#consultGreen)" opacity="0.3"/>
  <text x="18" y="31" font-family="Arial" font-size="10" font-weight="bold" fill="url(#consultGreen)" text-anchor="middle">?</text>

  <circle cx="46" cy="27" r="6" fill="url(#consultGreen)" opacity="0.3"/>
  <text x="46" y="31" font-family="Arial" font-size="10" font-weight="bold" fill="url(#consultGreen)" text-anchor="middle">!</text>

  <!-- Small people silhouettes at bottom -->
  <circle cx="24" cy="58" r="4" fill="url(#consultGreen)"/>
  <ellipse cx="24" cy="64" rx="5" ry="6" fill="url(#consultGreen)"/>

  <circle cx="40" cy="58" r="4" fill="#4a7c23"/>
  <ellipse cx="40" cy="64" rx="5" ry="6" fill="#4a7c23"/>
</svg>